<?xml version="1.0" encoding="UTF-8"?>
<!DOCTYPE svg PUBLIC "-//W3C//DTD SVG 1.1//EN" "http://www.w3.org/Graphics/SVG/1.1/DTD/svg11.dtd">
<!-- Creator: CorelDRAW X8 -->
<svg xmlns="http://www.w3.org/2000/svg" xml:space="preserve" width="162.56mm" height="55.0332mm" version="1.1" style="shape-rendering:geometricPrecision; text-rendering:geometricPrecision; image-rendering:optimizeQuality; fill-rule:evenodd; clip-rule:evenodd"
viewBox="0 0 16256 5503"
 xmlns:xlink="http://www.w3.org/1999/xlink">
 <defs>
  <style type="text/css">
   <![CDATA[
    .fil4 {fill:none}
    .fil6 {fill:#94A1A0}
    .fil0 {fill:#D2D3D5;fill-rule:nonzero}
    .fil5 {fill:#060040;fill-rule:nonzero}
    .fil7 {fill:#94A1A0;fill-rule:nonzero}
    .fil3 {fill:#FF4400;fill-rule:nonzero}
    .fil1 {fill:#BCCED9;fill-opacity:0.501961}
    .fil2 {fill:#B0BAB9;fill-opacity:0.850980}
   ]]>
  </style>
   <clipPath id="id0">
    <path d="M0 0l16256 0 0 5503 -16256 0 0 -5503z"/>
   </clipPath>
   <clipPath id="id1">
    <path d="M0 0l16256 0 0 5503 -16256 0 0 -5503z"/>
   </clipPath>
    <clipPath id="id2">
     <path d="M0 0l10483 0 0 5503 -10483 0 0 -5503z"/>
    </clipPath>
    <clipPath id="id3">
     <path d="M0 0l16256 0 0 5503 -16256 0 0 -5503z"/>
    </clipPath>
    <clipPath id="id4">
    </clipPath>
    <clipPath id="id5">
     <path d="M0 0l16256 0 0 5503 -16256 0 0 -5503z"/>
    </clipPath>
    <clipPath id="id6">
    </clipPath>
    <clipPath id="id7">
     <path d="M0 0l16256 0 0 5503 -16256 0 0 -5503z"/>
    </clipPath>
    <clipPath id="id8">
     <path d="M7298 0l8958 0 0 5503 -8958 0 0 -5503z"/>
    </clipPath>
    <clipPath id="id9">
     <path d="M0 0l16256 0 0 5503 -16256 0 0 -5503z"/>
    </clipPath>
 </defs>
 <g id="Camada_x0020_1">
  <metadata id="CorelCorpID_0Corel-Layer"/>
  <g id="_2970477759264">
   <path class="fil0" d="M1246 272c0,14 11,25 24,25 14,0 25,-11 25,-25 0,-13 -11,-24 -25,-24 -13,0 -24,11 -24,24z"/>
   <path class="fil0" d="M1069 272c0,14 11,25 25,25 13,0 24,-11 24,-25 0,-13 -11,-24 -24,-24 -14,0 -25,11 -25,24z"/>
   <path class="fil0" d="M893 272c0,14 11,25 24,25 14,0 25,-11 25,-25 0,-13 -11,-24 -25,-24 -13,0 -24,11 -24,24z"/>
   <path class="fil0" d="M717 272c0,14 11,25 24,25 14,0 25,-11 25,-25 0,-13 -11,-24 -25,-24 -13,0 -24,11 -24,24z"/>
   <path class="fil0" d="M540 272c0,14 11,25 25,25 13,0 24,-11 24,-25 0,-13 -11,-24 -24,-24 -14,0 -25,11 -25,24z"/>
   <path class="fil0" d="M1246 402c0,14 11,25 24,25 14,0 25,-11 25,-25 0,-13 -11,-24 -25,-24 -13,0 -24,11 -24,24z"/>
   <path class="fil0" d="M1069 402c0,14 11,25 25,25 13,0 24,-11 24,-25 0,-13 -11,-24 -24,-24 -14,0 -25,11 -25,24z"/>
   <path class="fil0" d="M893 402c0,14 11,25 24,25 14,0 25,-11 25,-25 0,-13 -11,-24 -25,-24 -13,0 -24,11 -24,24z"/>
   <path class="fil0" d="M717 402c0,14 11,25 24,25 14,0 25,-11 25,-25 0,-13 -11,-24 -25,-24 -13,0 -24,11 -24,24z"/>
   <path class="fil0" d="M540 402c0,14 11,25 25,25 13,0 24,-11 24,-25 0,-13 -11,-24 -24,-24 -14,0 -25,11 -25,24z"/>
   <path class="fil0" d="M1246 533c0,13 11,24 24,24 14,0 25,-11 25,-24 0,-14 -11,-25 -25,-25 -13,0 -24,11 -24,25z"/>
   <path class="fil0" d="M1069 533c0,13 11,24 25,24 13,0 24,-11 24,-24 0,-14 -11,-25 -24,-25 -14,0 -25,11 -25,25z"/>
   <path class="fil0" d="M893 533c0,13 11,24 24,24 14,0 25,-11 25,-24 0,-14 -11,-25 -25,-25 -13,0 -24,11 -24,25z"/>
   <path class="fil0" d="M717 533c0,13 11,24 24,24 14,0 25,-11 25,-24 0,-14 -11,-25 -25,-25 -13,0 -24,11 -24,25z"/>
   <path class="fil0" d="M540 533c0,13 11,24 25,24 13,0 24,-11 24,-24 0,-14 -11,-25 -24,-25 -14,0 -25,11 -25,25z"/>
   <path class="fil0" d="M2132 272c0,14 11,25 24,25 14,0 25,-11 25,-25 0,-13 -11,-24 -25,-24 -13,0 -24,11 -24,24z"/>
   <path class="fil0" d="M1955 272c0,14 11,25 25,25 13,0 24,-11 24,-25 0,-13 -11,-24 -24,-24 -14,0 -25,11 -25,24z"/>
   <path class="fil0" d="M1779 272c0,14 11,25 24,25 14,0 25,-11 25,-25 0,-13 -11,-24 -25,-24 -13,0 -24,11 -24,24z"/>
   <path class="fil0" d="M1603 272c0,14 11,25 24,25 14,0 25,-11 25,-25 0,-13 -11,-24 -25,-24 -13,0 -24,11 -24,24z"/>
   <path class="fil0" d="M1426 272c0,14 11,25 25,25 13,0 24,-11 24,-25 0,-13 -11,-24 -24,-24 -14,0 -25,11 -25,24z"/>
   <path class="fil0" d="M2132 402c0,14 11,25 24,25 14,0 25,-11 25,-25 0,-13 -11,-24 -25,-24 -13,0 -24,11 -24,24z"/>
   <path class="fil0" d="M1955 402c0,14 11,25 25,25 13,0 24,-11 24,-25 0,-13 -11,-24 -24,-24 -14,0 -25,11 -25,24z"/>
   <path class="fil0" d="M1779 402c0,14 11,25 24,25 14,0 25,-11 25,-25 0,-13 -11,-24 -25,-24 -13,0 -24,11 -24,24z"/>
   <path class="fil0" d="M1603 402c0,14 11,25 24,25 14,0 25,-11 25,-25 0,-13 -11,-24 -25,-24 -13,0 -24,11 -24,24z"/>
   <path class="fil0" d="M1426 402c0,14 11,25 25,25 13,0 24,-11 24,-25 0,-13 -11,-24 -24,-24 -14,0 -25,11 -25,24z"/>
   <path class="fil0" d="M2132 533c0,13 11,24 24,24 14,0 25,-11 25,-24 0,-14 -11,-25 -25,-25 -13,0 -24,11 -24,25z"/>
   <path class="fil0" d="M1955 533c0,13 11,24 25,24 13,0 24,-11 24,-24 0,-14 -11,-25 -24,-25 -14,0 -25,11 -25,25z"/>
   <path class="fil0" d="M1779 533c0,13 11,24 24,24 14,0 25,-11 25,-24 0,-14 -11,-25 -25,-25 -13,0 -24,11 -24,25z"/>
   <path class="fil0" d="M1603 533c0,13 11,24 24,24 14,0 25,-11 25,-24 0,-14 -11,-25 -25,-25 -13,0 -24,11 -24,25z"/>
   <path class="fil0" d="M1426 533c0,13 11,24 25,24 13,0 24,-11 24,-24 0,-14 -11,-25 -24,-25 -14,0 -25,11 -25,25z"/>
  </g>
  <g id="_2970369910624">
   <path class="fil0" d="M2265 3931c0,13 11,24 24,24 14,0 25,-11 25,-24 0,-14 -11,-25 -25,-25 -13,0 -24,11 -24,25z"/>
   <path class="fil0" d="M2088 3931c0,13 11,24 25,24 14,0 25,-11 25,-24 0,-14 -11,-25 -25,-25 -14,0 -25,11 -25,25z"/>
   <path class="fil0" d="M1912 3931c0,13 11,24 25,24 13,0 24,-11 24,-24 0,-14 -11,-25 -24,-25 -14,0 -25,11 -25,25z"/>
   <path class="fil0" d="M1736 3931c0,13 11,24 24,24 14,0 25,-11 25,-24 0,-14 -11,-25 -25,-25 -13,0 -24,11 -24,25z"/>
   <path class="fil0" d="M1559 3931c0,13 11,24 25,24 14,0 25,-11 25,-24 0,-14 -11,-25 -25,-25 -14,0 -25,11 -25,25z"/>
   <path class="fil0" d="M2265 4061c0,13 11,24 24,24 14,0 25,-11 25,-24 0,-14 -11,-25 -25,-25 -13,0 -24,11 -24,25z"/>
   <path class="fil0" d="M2088 4061c0,13 11,24 25,24 14,0 25,-11 25,-24 0,-14 -11,-25 -25,-25 -14,0 -25,11 -25,25z"/>
   <path class="fil0" d="M1912 4061c0,13 11,24 25,24 13,0 24,-11 24,-24 0,-14 -11,-25 -24,-25 -14,0 -25,11 -25,25z"/>
   <path class="fil0" d="M1736 4061c0,13 11,24 24,24 14,0 25,-11 25,-24 0,-14 -11,-25 -25,-25 -13,0 -24,11 -24,25z"/>
   <path class="fil0" d="M1559 4061c0,13 11,24 25,24 14,0 25,-11 25,-24 0,-14 -11,-25 -25,-25 -14,0 -25,11 -25,25z"/>
   <path class="fil0" d="M2265 4191c0,14 11,25 24,25 14,0 25,-11 25,-25 0,-13 -11,-24 -25,-24 -13,0 -24,11 -24,24z"/>
   <path class="fil0" d="M2088 4191c0,14 11,25 25,25 14,0 25,-11 25,-25 0,-13 -11,-24 -25,-24 -14,0 -25,11 -25,24z"/>
   <path class="fil0" d="M1912 4191c0,14 11,25 25,25 13,0 24,-11 24,-25 0,-13 -11,-24 -24,-24 -14,0 -25,11 -25,24z"/>
   <path class="fil0" d="M1736 4191c0,14 11,25 24,25 14,0 25,-11 25,-25 0,-13 -11,-24 -25,-24 -13,0 -24,11 -24,24z"/>
   <path class="fil0" d="M1559 4191c0,14 11,25 25,25 14,0 25,-11 25,-25 0,-13 -11,-24 -25,-24 -14,0 -25,11 -25,24z"/>
   <path class="fil0" d="M2265 4321c0,14 11,25 24,25 14,0 25,-11 25,-25 0,-13 -11,-24 -25,-24 -13,0 -24,11 -24,24z"/>
   <path class="fil0" d="M2088 4321c0,14 11,25 25,25 14,0 25,-11 25,-25 0,-13 -11,-24 -25,-24 -14,0 -25,11 -25,24z"/>
   <path class="fil0" d="M1912 4321c0,14 11,25 25,25 13,0 24,-11 24,-25 0,-13 -11,-24 -24,-24 -14,0 -25,11 -25,24z"/>
   <path class="fil0" d="M1736 4321c0,14 11,25 24,25 14,0 25,-11 25,-25 0,-13 -11,-24 -25,-24 -13,0 -24,11 -24,24z"/>
   <path class="fil0" d="M1559 4321c0,14 11,25 25,25 14,0 25,-11 25,-25 0,-13 -11,-24 -25,-24 -14,0 -25,11 -25,24z"/>
   <path class="fil0" d="M2265 4452c0,13 11,24 24,24 14,0 25,-11 25,-24 0,-14 -11,-25 -25,-25 -13,0 -24,11 -24,25z"/>
   <path class="fil0" d="M2088 4452c0,13 11,24 25,24 14,0 25,-11 25,-24 0,-14 -11,-25 -25,-25 -14,0 -25,11 -25,25z"/>
   <path class="fil0" d="M1912 4452c0,13 11,24 25,24 13,0 24,-11 24,-24 0,-14 -11,-25 -24,-25 -14,0 -25,11 -25,25z"/>
   <path class="fil0" d="M1736 4452c0,13 11,24 24,24 14,0 25,-11 25,-24 0,-14 -11,-25 -25,-25 -13,0 -24,11 -24,25z"/>
   <path class="fil0" d="M1559 4452c0,13 11,24 25,24 14,0 25,-11 25,-24 0,-14 -11,-25 -25,-25 -14,0 -25,11 -25,25z"/>
   <path class="fil0" d="M2265 4582c0,13 11,24 24,24 14,0 25,-11 25,-24 0,-14 -11,-25 -25,-25 -13,0 -24,11 -24,25z"/>
   <path class="fil0" d="M2088 4582c0,13 11,24 25,24 14,0 25,-11 25,-24 0,-14 -11,-25 -25,-25 -14,0 -25,11 -25,25z"/>
   <path class="fil0" d="M1912 4582c0,13 11,24 25,24 13,0 24,-11 24,-24 0,-14 -11,-25 -24,-25 -14,0 -25,11 -25,25z"/>
   <path class="fil0" d="M1736 4582c0,13 11,24 24,24 14,0 25,-11 25,-24 0,-14 -11,-25 -25,-25 -13,0 -24,11 -24,25z"/>
   <path class="fil0" d="M1559 4582c0,13 11,24 25,24 14,0 25,-11 25,-24 0,-14 -11,-25 -25,-25 -14,0 -25,11 -25,25z"/>
  </g>
  <g style="clip-path:url(#id0)">
   <polygon class="fil1" points="0,0 16256,0 16256,5503 0,5503 "/>
  </g>
  <g style="clip-path:url(#id1)">
   <g id="_2970369908288">
   </g>
   <g style="clip-path:url(#id2)">
    <image id="company-managers-gathering-in-meeting-room-watching-project-presentation-on-computer-monitor-together-holding-paper-report-business-communicat.jpg" x="-4027" y="-2701" width="14510" height="9673" xlink:href="banner-principal-contadorcomvc-vs11_Images\banner-principal-contadorcomvc-vs11_ImgID1.png"/>
   </g>
   <g style="clip-path:url(#id3)">
   </g>
   <g style="clip-path:url(#id4)">
    <image id="successful-business-team-watching-content-on-computer-monitor-together-discussing-project-sitting-at-workplace-and-pointing-at-display-business-communication-or-teamwork-concept.jpg" x="-8249" y="-7953" width="9465" height="6310" xlink:href="banner-principal-contadorcomvc-vs11_Images\banner-principal-contadorcomvc-vs11_ImgID2.png"/>
   </g>
   <g style="clip-path:url(#id5)">
   </g>
   <g style="clip-path:url(#id6)">
    <image x="18356" y="842" width="15113" height="10067" xlink:href="banner-principal-contadorcomvc-vs11_Images\banner-principal-contadorcomvc-vs11_ImgID3.png"/>
   </g>
   <g style="clip-path:url(#id7)">
    <polygon class="fil2" points="-406,-544 16686,-544 16686,5620 -406,5620 "/>
    <path class="fil3" d="M7046 838c-119,-336 -274,-656 -459,-954l73 0c179,293 328,605 444,933 6,16 -2,34 -19,40 -16,6 -34,-3 -39,-19zm-806 4724c174,-216 330,-448 466,-692 9,-15 28,-20 43,-12 15,9 20,28 12,43 -130,232 -278,453 -442,661l-79 0z"/>
   </g>
   <g style="clip-path:url(#id8)">
    <image id="imagem_6.jpg" x="7298" y="-140" width="9059" height="6039" xlink:href="banner-principal-contadorcomvc-vs11_Images\banner-principal-contadorcomvc-vs11_ImgID4.png"/>
   </g>
   <g style="clip-path:url(#id9)">
   </g>
  </g>
  <polygon class="fil4" points="0,0 16256,0 16256,5503 0,5503 "/>
  <g id="_2970369903904">
   <g>
    <path class="fil5" d="M1791 2725c-25,12 -57,18 -98,18 -52,0 -93,-16 -123,-47 -30,-30 -45,-72 -45,-123 0,-55 16,-99 50,-133 34,-34 78,-51 132,-51 33,0 61,4 84,13l0 74c-23,-14 -49,-21 -78,-21 -32,0 -58,10 -78,31 -19,20 -29,47 -29,82 0,33 9,59 28,79 18,19 43,29 75,29 30,0 57,-7 82,-22l0 71z"/>
    <path id="1" class="fil5" d="M1989 2743c-49,0 -89,-16 -119,-48 -31,-32 -47,-74 -47,-125 0,-54 16,-97 47,-131 32,-33 73,-50 125,-50 49,0 88,16 118,48 30,32 45,74 45,126 0,54 -15,97 -47,130 -31,33 -72,50 -122,50zm4 -288c-27,0 -49,10 -65,31 -16,20 -24,47 -24,80 0,34 8,61 24,81 16,19 37,29 63,29 26,0 47,-9 63,-29 15,-19 23,-45 23,-79 0,-36 -7,-63 -22,-83 -16,-20 -36,-30 -62,-30z"/>
    <path id="2" class="fil5" d="M2523 2737l-78 0 -141 -215c-8,-13 -14,-22 -17,-28l-1 0c1,12 2,30 2,55l0 188 -73 0 0 -342 83 0 136 208c6,9 11,19 17,28l1 0c-2,-8 -2,-24 -2,-47l0 -189 73 0 0 342z"/>
    <polygon id="3" class="fil5" points="2841,2458 2743,2458 2743,2737 2666,2737 2666,2458 2569,2458 2569,2395 2841,2395 "/>
    <path id="4" class="fil5" d="M3153 2737l-84 0 -24 -76 -121 0 -25 76 -83 0 124 -342 92 0 121 342zm-126 -135l-36 -115c-3,-9 -5,-19 -6,-31l-2 0c-1,10 -3,20 -6,30l-37 116 87 0z"/>
    <path id="5" class="fil5" d="M3196 2737l0 -342 121 0c121,0 182,55 182,167 0,53 -16,95 -50,127 -33,32 -77,48 -132,48l-121 0zm77 -279l0 216 38 0c33,0 60,-10 79,-30 19,-20 28,-47 28,-82 0,-32 -9,-58 -28,-76 -19,-19 -45,-28 -79,-28l-38 0z"/>
    <path id="6" class="fil5" d="M3700 2743c-49,0 -88,-16 -119,-48 -31,-32 -47,-74 -47,-125 0,-54 16,-97 47,-131 32,-33 73,-50 125,-50 49,0 88,16 118,48 30,32 45,74 45,126 0,54 -15,97 -46,130 -32,33 -72,50 -123,50zm4 -288c-27,0 -49,10 -65,31 -15,20 -23,47 -23,80 0,34 8,61 23,81 16,19 37,29 63,29 26,0 47,-9 63,-29 16,-19 23,-45 23,-79 0,-36 -7,-63 -22,-83 -15,-20 -36,-30 -62,-30z"/>
    <path id="7" class="fil5" d="M4213 2737l-89 0 -53 -88c-4,-7 -7,-13 -11,-18 -4,-5 -7,-10 -11,-14 -4,-3 -8,-6 -12,-8 -4,-2 -8,-3 -13,-3l-21 0 0 131 -77 0 0 -342 122 0c83,0 125,31 125,93 0,12 -2,23 -6,33 -4,10 -9,19 -15,27 -7,8 -15,15 -25,21 -9,6 -20,11 -31,14l0 1c5,2 10,4 15,8 4,3 9,7 13,12 5,5 9,10 13,16 4,5 8,10 11,16l65 101zm-210 -284l0 95 34 0c16,0 29,-5 39,-15 10,-9 16,-21 16,-36 0,-30 -18,-44 -54,-44l-35 0z"/>
    <path class="fil3" d="M4500 2725c-25,12 -58,18 -98,18 -52,0 -94,-16 -124,-47 -30,-30 -45,-72 -45,-123 0,-55 17,-99 51,-133 34,-34 77,-51 131,-51 34,0 62,4 85,13l0 74c-23,-14 -49,-21 -78,-21 -33,0 -58,10 -78,31 -20,20 -30,47 -30,82 0,33 10,59 28,79 19,19 44,29 75,29 30,0 58,-7 83,-22l0 71z"/>
    <path id="1" class="fil3" d="M4698 2743c-49,0 -89,-16 -120,-48 -31,-32 -46,-74 -46,-125 0,-54 16,-97 47,-131 31,-33 73,-50 124,-50 49,0 89,16 119,48 30,32 45,74 45,126 0,54 -16,97 -47,130 -31,33 -72,50 -122,50zm3 -288c-27,0 -48,10 -64,31 -16,20 -24,47 -24,80 0,34 8,61 24,81 16,19 37,29 62,29 27,0 48,-9 63,-29 16,-19 24,-45 24,-79 0,-36 -8,-63 -23,-83 -15,-20 -36,-30 -62,-30z"/>
    <path id="2" class="fil3" d="M5313 2737l-76 0 0 -205c0,-22 1,-46 3,-73l-2 0c-4,21 -8,36 -11,45l-80 233 -63 0 -81 -230c-2,-7 -6,-22 -11,-48l-2 0c2,34 3,63 3,89l0 189 -69 0 0 -342 112 0 70 202c6,17 10,33 12,49l2 0c4,-19 9,-35 13,-49l70 -202 110 0 0 342z"/>
    <path class="fil5" d="M5679 2395l-118 342 -87 0 -116 -342 83 0 71 238c4,13 6,24 7,34l1 0c1,-11 4,-23 8,-35l71 -237 80 0z"/>
    <path id="1" class="fil5" d="M5864 2743c-49,0 -89,-16 -120,-48 -31,-32 -46,-74 -46,-125 0,-54 15,-97 47,-131 31,-33 72,-50 124,-50 49,0 88,16 118,48 31,32 46,74 46,126 0,54 -16,97 -47,130 -31,33 -72,50 -122,50zm3 -288c-27,0 -49,10 -64,31 -16,20 -24,47 -24,80 0,34 8,61 24,81 15,19 36,29 62,29 27,0 48,-9 63,-29 16,-19 24,-45 24,-79 0,-36 -8,-63 -23,-83 -15,-20 -36,-30 -62,-30z"/>
    <path id="2" class="fil5" d="M6334 2725c-24,12 -57,18 -97,18 -53,0 -94,-16 -124,-47 -30,-30 -45,-72 -45,-123 0,-55 17,-99 51,-133 33,-34 77,-51 131,-51 33,0 62,4 84,13l0 74c-22,-14 -48,-21 -78,-21 -32,0 -58,10 -77,31 -20,20 -30,47 -30,82 0,33 9,59 28,79 18,19 44,29 75,29 30,0 58,-7 82,-22l0 71z"/>
    <path id="3" class="fil5" d="M6599 2737l-205 0 0 -342 197 0 0 63 -120 0 0 76 112 0 0 62 -112 0 0 78 128 0 0 63zm-22 -374l-49 0 -38 -45 -35 45 -49 0 56 -77 59 0 56 77z"/>
   </g>
   <path class="fil5" d="M1769 3192c-30,17 -64,26 -101,26 -42,0 -77,-14 -104,-42 -26,-27 -39,-64 -39,-110 0,-46 14,-84 44,-114 29,-30 66,-45 112,-45 32,0 60,5 82,16l0 39c-24,-15 -53,-23 -86,-23 -34,0 -62,12 -83,35 -22,23 -32,53 -32,90 0,38 10,68 30,89 19,22 47,33 81,33 23,0 44,-5 61,-14l0 -84 -66 0 0 -32 101 0 0 136z"/>
   <path id="1" class="fil5" d="M2007 3114l-152 0c1,24 7,42 19,55 13,13 30,20 51,20 24,0 46,-8 67,-24l0 32c-19,14 -44,21 -75,21 -30,0 -54,-10 -72,-30 -17,-19 -26,-46 -26,-82 0,-33 10,-60 29,-81 19,-21 42,-32 70,-32 28,0 50,9 66,27 15,18 23,44 23,76l0 18zm-36 -29c0,-20 -5,-35 -14,-46 -9,-12 -22,-17 -39,-17 -16,0 -30,6 -42,17 -11,12 -18,27 -21,46l116 0z"/>
   <path id="2" class="fil5" d="M2046 3205l0 -37c18,14 39,21 61,21 31,0 46,-10 46,-30 0,-6 -2,-11 -4,-15 -3,-4 -6,-7 -11,-11 -4,-3 -9,-5 -15,-8 -6,-2 -13,-5 -19,-7 -10,-4 -18,-8 -25,-12 -8,-4 -14,-8 -18,-13 -5,-5 -9,-10 -11,-16 -3,-6 -4,-14 -4,-22 0,-10 2,-19 7,-27 5,-7 11,-14 18,-19 8,-5 17,-9 27,-12 9,-3 20,-4 30,-4 19,0 35,3 50,10l0 35c-16,-11 -34,-16 -54,-16 -7,0 -13,1 -18,2 -5,2 -9,4 -13,6 -4,3 -7,6 -9,10 -2,4 -3,8 -3,12 0,6 1,10 3,14 2,4 5,7 9,10 4,3 9,6 14,8 6,3 12,5 19,8 10,4 19,7 26,11 8,4 14,8 19,13 6,5 10,11 13,17 2,6 4,14 4,22 0,11 -3,20 -7,28 -5,8 -11,14 -19,19 -8,6 -17,9 -27,12 -10,2 -21,4 -32,4 -22,0 -41,-5 -57,-13z"/>
   <path id="3" class="fil5" d="M2340 3211c-8,4 -19,6 -32,6 -37,0 -56,-21 -56,-63l0 -127 -37 0 0 -29 37 0 0 -52 34 -11 0 63 54 0 0 29 -54 0 0 121c0,15 3,25 7,31 5,6 13,9 25,9 8,0 16,-2 22,-7l0 30z"/>
   <path id="4" class="fil5" d="M2540 3213l-35 0 0 -34 -1 0c-14,26 -37,39 -66,39 -21,0 -38,-6 -50,-17 -12,-12 -18,-27 -18,-45 0,-40 24,-64 71,-70l64 -9c0,-37 -14,-55 -44,-55 -26,0 -49,9 -70,26l0 -35c21,-13 45,-20 73,-20 50,0 76,27 76,80l0 140zm-35 -109l-51 7c-16,2 -28,6 -36,12 -9,6 -13,16 -13,30 0,11 4,19 12,26 7,6 17,10 29,10 17,0 32,-6 43,-18 11,-12 16,-27 16,-46l0 -21zm23 -197c0,15 -3,27 -10,36 -7,9 -16,14 -27,14 -10,0 -21,-4 -34,-11 -11,-6 -19,-9 -25,-9 -12,0 -19,8 -19,24l-19 0c0,-15 3,-27 10,-36 7,-9 16,-14 28,-14 9,0 19,4 31,11 11,6 19,9 27,9 12,0 18,-8 18,-24l20 0z"/>
   <path id="5" class="fil5" d="M2694 3218c-32,0 -57,-10 -76,-30 -19,-20 -28,-47 -28,-80 0,-36 10,-64 29,-85 20,-20 47,-30 80,-30 32,0 57,10 75,30 18,19 27,47 27,82 0,34 -10,61 -29,82 -19,20 -45,31 -78,31zm3 -196c-22,0 -40,7 -53,23 -13,15 -19,35 -19,62 0,25 6,45 19,60 13,14 31,22 53,22 22,0 39,-7 51,-22 12,-14 18,-35 18,-61 0,-27 -6,-48 -18,-62 -12,-15 -29,-22 -51,-22z"/>
   <polygon id="6" class="fil5" points="3131,2944 3013,2944 3013,3048 3122,3048 3122,3080 3013,3080 3013,3213 2978,3213 2978,2912 3131,2912 "/>
   <path id="7" class="fil5" d="M3201 2944c-7,0 -12,-2 -16,-7 -4,-4 -7,-9 -7,-16 0,-6 3,-11 7,-16 4,-4 9,-6 16,-6 6,0 11,2 16,6 4,5 6,10 6,16 0,7 -2,12 -6,16 -5,4 -10,7 -16,7zm16 269l-34 0 0 -215 34 0 0 215z"/>
   <path id="8" class="fil5" d="M3465 3213l-34 0 0 -123c0,-45 -17,-68 -50,-68 -17,0 -32,6 -43,19 -11,13 -17,30 -17,49l0 123 -34 0 0 -215 34 0 0 36 1 0c16,-27 40,-41 71,-41 23,0 41,8 53,23 13,15 19,37 19,65l0 132z"/>
   <path id="9" class="fil5" d="M3683 3213l-34 0 0 -34 -1 0c-15,26 -37,39 -66,39 -21,0 -38,-6 -50,-17 -12,-12 -18,-27 -18,-45 0,-40 23,-64 71,-70l64 -9c0,-37 -15,-55 -44,-55 -26,0 -49,9 -70,26l0 -35c21,-13 45,-20 73,-20 50,0 75,27 75,80l0 140zm-34 -109l-52 7c-16,2 -28,6 -36,12 -8,6 -12,16 -12,30 0,11 4,19 11,26 8,6 18,10 30,10 17,0 31,-6 42,-18 11,-12 17,-27 17,-46l0 -21z"/>
   <path id="10" class="fil5" d="M3926 3213l-34 0 0 -123c0,-45 -17,-68 -50,-68 -17,0 -31,6 -43,19 -11,13 -16,30 -16,49l0 123 -35 0 0 -215 35 0 0 36 0 0c17,-27 40,-41 71,-41 23,0 41,8 54,23 12,15 18,37 18,65l0 132z"/>
   <path id="11" class="fil5" d="M4137 3203c-16,10 -36,15 -58,15 -31,0 -56,-10 -74,-30 -19,-20 -29,-46 -29,-78 0,-35 10,-63 31,-85 20,-21 47,-32 81,-32 19,0 35,4 50,11l0 35c-16,-11 -33,-17 -51,-17 -22,0 -40,8 -54,24 -14,15 -21,36 -21,61 0,26 6,45 19,60 14,14 31,22 53,22 19,0 37,-6 53,-19l0 33z"/>
   <path id="12" class="fil5" d="M4362 3114l-152 0c1,24 7,42 19,55 13,13 30,20 51,20 24,0 47,-8 67,-24l0 32c-19,14 -44,21 -75,21 -30,0 -54,-10 -71,-30 -18,-19 -26,-46 -26,-82 0,-33 9,-60 28,-81 19,-21 42,-32 70,-32 29,0 50,9 66,27 15,18 23,44 23,76l0 18zm-36 -29c0,-20 -5,-35 -14,-46 -9,-12 -22,-17 -39,-17 -16,0 -30,6 -41,17 -12,12 -19,27 -21,46l115 0z"/>
   <path id="13" class="fil5" d="M4431 2944c-6,0 -11,-2 -15,-7 -5,-4 -7,-9 -7,-16 0,-6 2,-11 7,-16 4,-4 9,-6 15,-6 7,0 12,2 16,6 5,5 7,10 7,16 0,7 -2,12 -7,16 -4,4 -9,7 -16,7zm17 269l-34 0 0 -215 34 0 0 215z"/>
   <path id="14" class="fil5" d="M4629 3033c-6,-5 -14,-7 -25,-7 -15,0 -27,7 -37,21 -10,14 -15,32 -15,56l0 110 -34 0 0 -215 34 0 0 44 1 0c5,-15 12,-27 22,-35 10,-8 21,-13 34,-13 9,0 16,1 20,3l0 36z"/>
   <path id="15" class="fil5" d="M4820 3213l-34 0 0 -34 -1 0c-15,26 -37,39 -66,39 -21,0 -38,-6 -50,-17 -12,-12 -18,-27 -18,-45 0,-40 23,-64 71,-70l64 -9c0,-37 -15,-55 -44,-55 -26,0 -49,9 -70,26l0 -35c21,-13 45,-20 73,-20 50,0 75,27 75,80l0 140zm-34 -109l-52 7c-16,2 -28,6 -36,12 -8,6 -12,16 -12,30 0,11 4,19 11,26 8,6 18,10 30,10 17,0 31,-6 42,-18 11,-12 17,-27 17,-46l0 -21z"/>
  </g>
  <path class="fil6" d="M1045 297c0,13 11,24 24,24 14,0 25,-11 25,-24 0,-14 -11,-25 -25,-25 -13,0 -24,11 -24,25z"/>
  <path class="fil6" d="M868 297c0,13 11,24 25,24 13,0 25,-11 25,-24 0,-14 -12,-25 -25,-25 -14,0 -25,11 -25,25z"/>
  <path class="fil6" d="M692 297c0,13 11,24 25,24 13,0 24,-11 24,-24 0,-14 -11,-25 -24,-25 -14,0 -25,11 -25,25z"/>
  <path class="fil6" d="M516 297c0,13 11,24 24,24 14,0 25,-11 25,-24 0,-14 -11,-25 -25,-25 -13,0 -24,11 -24,25z"/>
  <path class="fil6" d="M339 297c0,13 11,24 25,24 14,0 24,-11 24,-24 0,-14 -10,-25 -24,-25 -14,0 -25,11 -25,25z"/>
  <path class="fil6" d="M1045 427c0,14 11,25 24,25 14,0 25,-11 25,-25 0,-14 -11,-25 -25,-25 -13,0 -24,11 -24,25z"/>
  <path class="fil6" d="M868 427c0,14 11,25 25,25 13,0 25,-11 25,-25 0,-14 -12,-25 -25,-25 -14,0 -25,11 -25,25z"/>
  <path class="fil6" d="M692 427c0,14 11,25 25,25 13,0 24,-11 24,-25 0,-14 -11,-25 -24,-25 -14,0 -25,11 -25,25z"/>
  <path class="fil6" d="M516 427c0,14 11,25 24,25 14,0 25,-11 25,-25 0,-14 -11,-25 -25,-25 -13,0 -24,11 -24,25z"/>
  <path class="fil6" d="M339 427c0,14 11,25 25,25 14,0 24,-11 24,-25 0,-14 -10,-25 -24,-25 -14,0 -25,11 -25,25z"/>
  <path class="fil6" d="M1045 557c0,14 11,25 24,25 14,0 25,-11 25,-25 0,-13 -11,-24 -25,-24 -13,0 -24,11 -24,24z"/>
  <path class="fil6" d="M868 557c0,14 11,25 25,25 13,0 25,-11 25,-25 0,-13 -12,-24 -25,-24 -14,0 -25,11 -25,24z"/>
  <path class="fil6" d="M692 557c0,14 11,25 25,25 13,0 24,-11 24,-25 0,-13 -11,-24 -24,-24 -14,0 -25,11 -25,24z"/>
  <path class="fil6" d="M516 557c0,14 11,25 24,25 14,0 25,-11 25,-25 0,-13 -11,-24 -25,-24 -13,0 -24,11 -24,24z"/>
  <path class="fil6" d="M339 557c0,14 11,25 25,25 14,0 24,-11 24,-25 0,-13 -10,-24 -24,-24 -14,0 -25,11 -25,24z"/>
  <path class="fil6" d="M1045 687c0,14 11,25 24,25 14,0 25,-11 25,-25 0,-13 -11,-24 -25,-24 -13,0 -24,11 -24,24z"/>
  <path class="fil6" d="M868 687c0,14 11,25 25,25 13,0 25,-11 25,-25 0,-13 -12,-24 -25,-24 -14,0 -25,11 -25,24z"/>
  <path class="fil6" d="M692 687c0,14 11,25 25,25 13,0 24,-11 24,-25 0,-13 -11,-24 -24,-24 -14,0 -25,11 -25,24z"/>
  <path class="fil6" d="M516 687c0,14 11,25 24,25 14,0 25,-11 25,-25 0,-13 -11,-24 -25,-24 -13,0 -24,11 -24,24z"/>
  <path class="fil6" d="M339 687c0,14 11,25 25,25 14,0 24,-11 24,-25 0,-13 -10,-24 -24,-24 -14,0 -25,11 -25,24z"/>
  <path class="fil6" d="M1045 818c0,13 11,24 24,24 14,0 25,-11 25,-24 0,-14 -11,-25 -25,-25 -13,0 -24,11 -24,25z"/>
  <path class="fil6" d="M868 818c0,13 11,24 25,24 13,0 25,-11 25,-24 0,-14 -12,-25 -25,-25 -14,0 -25,11 -25,25z"/>
  <path class="fil6" d="M692 818c0,13 11,24 25,24 13,0 24,-11 24,-24 0,-14 -11,-25 -24,-25 -14,0 -25,11 -25,25z"/>
  <path class="fil6" d="M516 818c0,13 11,24 24,24 14,0 25,-11 25,-24 0,-14 -11,-25 -25,-25 -13,0 -24,11 -24,25z"/>
  <path class="fil6" d="M339 818c0,13 11,24 25,24 14,0 24,-11 24,-24 0,-14 -10,-25 -24,-25 -14,0 -25,11 -25,25z"/>
  <path class="fil6" d="M1045 948c0,13 11,24 24,24 14,0 25,-11 25,-24 0,-14 -11,-25 -25,-25 -13,0 -24,11 -24,25z"/>
  <path class="fil6" d="M868 948c0,13 11,24 25,24 13,0 25,-11 25,-24 0,-14 -12,-25 -25,-25 -14,0 -25,11 -25,25z"/>
  <path class="fil6" d="M692 948c0,13 11,24 25,24 13,0 24,-11 24,-24 0,-14 -11,-25 -24,-25 -14,0 -25,11 -25,25z"/>
  <path class="fil6" d="M516 948c0,13 11,24 24,24 14,0 25,-11 25,-24 0,-14 -11,-25 -25,-25 -13,0 -24,11 -24,25z"/>
  <path class="fil6" d="M339 948c0,13 11,24 25,24 14,0 24,-11 24,-24 0,-14 -10,-25 -24,-25 -14,0 -25,11 -25,25z"/>
  <path class="fil7" d="M15761 272c0,14 11,25 24,25 14,0 25,-11 25,-25 0,-13 -11,-24 -25,-24 -13,0 -24,11 -24,24z"/>
  <path class="fil7" d="M15584 272c0,14 11,25 25,25 13,0 24,-11 24,-25 0,-13 -11,-24 -24,-24 -14,0 -25,11 -25,24z"/>
  <path class="fil7" d="M15408 272c0,14 11,25 24,25 14,0 25,-11 25,-25 0,-13 -11,-24 -25,-24 -13,0 -24,11 -24,24z"/>
  <path class="fil7" d="M15232 272c0,14 11,25 24,25 14,0 25,-11 25,-25 0,-13 -11,-24 -25,-24 -13,0 -24,11 -24,24z"/>
  <path class="fil7" d="M15055 272c0,14 11,25 25,25 13,0 24,-11 24,-25 0,-13 -11,-24 -24,-24 -14,0 -25,11 -25,24z"/>
  <path class="fil7" d="M15761 402c0,14 11,25 24,25 14,0 25,-11 25,-25 0,-13 -11,-24 -25,-24 -13,0 -24,11 -24,24z"/>
  <path class="fil7" d="M15584 402c0,14 11,25 25,25 13,0 24,-11 24,-25 0,-13 -11,-24 -24,-24 -14,0 -25,11 -25,24z"/>
  <path class="fil7" d="M15408 402c0,14 11,25 24,25 14,0 25,-11 25,-25 0,-13 -11,-24 -25,-24 -13,0 -24,11 -24,24z"/>
  <path class="fil7" d="M15232 402c0,14 11,25 24,25 14,0 25,-11 25,-25 0,-13 -11,-24 -25,-24 -13,0 -24,11 -24,24z"/>
  <path class="fil7" d="M15055 402c0,14 11,25 25,25 13,0 24,-11 24,-25 0,-13 -11,-24 -24,-24 -14,0 -25,11 -25,24z"/>
  <path class="fil7" d="M15761 533c0,13 11,24 24,24 14,0 25,-11 25,-24 0,-14 -11,-25 -25,-25 -13,0 -24,11 -24,25z"/>
  <path class="fil7" d="M15584 533c0,13 11,24 25,24 13,0 24,-11 24,-24 0,-14 -11,-25 -24,-25 -14,0 -25,11 -25,25z"/>
  <path class="fil7" d="M15408 533c0,13 11,24 24,24 14,0 25,-11 25,-24 0,-14 -11,-25 -25,-25 -13,0 -24,11 -24,25z"/>
  <path class="fil7" d="M15232 533c0,13 11,24 24,24 14,0 25,-11 25,-24 0,-14 -11,-25 -25,-25 -13,0 -24,11 -24,25z"/>
  <path class="fil7" d="M15055 533c0,13 11,24 25,24 13,0 24,-11 24,-24 0,-14 -11,-25 -24,-25 -14,0 -25,11 -25,25z"/>
  <path class="fil7" d="M15761 663c0,13 11,24 24,24 14,0 25,-11 25,-24 0,-14 -11,-25 -25,-25 -13,0 -24,11 -24,25z"/>
  <path class="fil7" d="M15584 663c0,13 11,24 25,24 13,0 24,-11 24,-24 0,-14 -11,-25 -24,-25 -14,0 -25,11 -25,25z"/>
  <path class="fil7" d="M15408 663c0,13 11,24 24,24 14,0 25,-11 25,-24 0,-14 -11,-25 -25,-25 -13,0 -24,11 -24,25z"/>
  <path class="fil7" d="M15232 663c0,13 11,24 24,24 14,0 25,-11 25,-24 0,-14 -11,-25 -25,-25 -13,0 -24,11 -24,25z"/>
  <path class="fil7" d="M15055 663c0,13 11,24 25,24 13,0 24,-11 24,-24 0,-14 -11,-25 -24,-25 -14,0 -25,11 -25,25z"/>
  <path class="fil7" d="M15761 793c0,14 11,25 24,25 14,0 25,-11 25,-25 0,-13 -11,-24 -25,-24 -13,0 -24,11 -24,24z"/>
  <path class="fil7" d="M15584 793c0,14 11,25 25,25 13,0 24,-11 24,-25 0,-13 -11,-24 -24,-24 -14,0 -25,11 -25,24z"/>
  <path class="fil7" d="M15408 793c0,14 11,25 24,25 14,0 25,-11 25,-25 0,-13 -11,-24 -25,-24 -13,0 -24,11 -24,24z"/>
  <path class="fil7" d="M15232 793c0,14 11,25 24,25 14,0 25,-11 25,-25 0,-13 -11,-24 -25,-24 -13,0 -24,11 -24,24z"/>
  <path class="fil7" d="M15055 793c0,14 11,25 25,25 13,0 24,-11 24,-25 0,-13 -11,-24 -24,-24 -14,0 -25,11 -25,24z"/>
  <path class="fil7" d="M15761 923c0,14 11,25 24,25 14,0 25,-11 25,-25 0,-13 -11,-24 -25,-24 -13,0 -24,11 -24,24z"/>
  <path class="fil7" d="M15584 923c0,14 11,25 25,25 13,0 24,-11 24,-25 0,-13 -11,-24 -24,-24 -14,0 -25,11 -25,24z"/>
  <path class="fil7" d="M15408 923c0,14 11,25 24,25 14,0 25,-11 25,-25 0,-13 -11,-24 -25,-24 -13,0 -24,11 -24,24z"/>
  <path class="fil7" d="M15232 923c0,14 11,25 24,25 14,0 25,-11 25,-25 0,-13 -11,-24 -25,-24 -13,0 -24,11 -24,24z"/>
  <path class="fil7" d="M15055 923c0,14 11,25 25,25 13,0 24,-11 24,-25 0,-13 -11,-24 -24,-24 -14,0 -25,11 -25,24z"/>
  <g id="_2970369880160">
   <path class="fil7" d="M9018 4816c0,17 14,31 31,31 17,0 31,-14 31,-31 0,-17 -14,-31 -31,-31 -17,0 -31,14 -31,31z"/>
   <path class="fil7" d="M8794 4816c0,17 14,31 31,31 18,0 32,-14 32,-31 0,-17 -14,-31 -32,-31 -17,0 -31,14 -31,31z"/>
   <path class="fil7" d="M8571 4816c0,17 13,31 31,31 17,0 31,-14 31,-31 0,-17 -14,-31 -31,-31 -18,0 -31,14 -31,31z"/>
   <path class="fil7" d="M8347 4816c0,17 14,31 31,31 17,0 31,-14 31,-31 0,-17 -14,-31 -31,-31 -17,0 -31,14 -31,31z"/>
   <path class="fil7" d="M8123 4816c0,17 14,31 31,31 18,0 31,-14 31,-31 0,-17 -13,-31 -31,-31 -17,0 -31,14 -31,31z"/>
   <path class="fil7" d="M9018 4981c0,17 14,31 31,31 17,0 31,-14 31,-31 0,-17 -14,-31 -31,-31 -17,0 -31,14 -31,31z"/>
   <path class="fil7" d="M8794 4981c0,17 14,31 31,31 18,0 32,-14 32,-31 0,-17 -14,-31 -32,-31 -17,0 -31,14 -31,31z"/>
   <path class="fil7" d="M8571 4981c0,17 13,31 31,31 17,0 31,-14 31,-31 0,-17 -14,-31 -31,-31 -18,0 -31,14 -31,31z"/>
   <path class="fil7" d="M8347 4981c0,17 14,31 31,31 17,0 31,-14 31,-31 0,-17 -14,-31 -31,-31 -17,0 -31,14 -31,31z"/>
   <path class="fil7" d="M8123 4981c0,17 14,31 31,31 18,0 31,-14 31,-31 0,-17 -13,-31 -31,-31 -17,0 -31,14 -31,31z"/>
   <path class="fil7" d="M9018 5146c0,17 14,31 31,31 17,0 31,-14 31,-31 0,-17 -14,-31 -31,-31 -17,0 -31,14 -31,31z"/>
   <path class="fil7" d="M8794 5146c0,17 14,31 31,31 18,0 32,-14 32,-31 0,-17 -14,-31 -32,-31 -17,0 -31,14 -31,31z"/>
   <path class="fil7" d="M8571 5146c0,17 13,31 31,31 17,0 31,-14 31,-31 0,-17 -14,-31 -31,-31 -18,0 -31,14 -31,31z"/>
   <path class="fil7" d="M8347 5146c0,17 14,31 31,31 17,0 31,-14 31,-31 0,-17 -14,-31 -31,-31 -17,0 -31,14 -31,31z"/>
   <path class="fil7" d="M8123 5146c0,17 14,31 31,31 18,0 31,-14 31,-31 0,-17 -13,-31 -31,-31 -17,0 -31,14 -31,31z"/>
   <path class="fil7" d="M10142 4816c0,17 14,31 31,31 17,0 31,-14 31,-31 0,-17 -14,-31 -31,-31 -17,0 -31,14 -31,31z"/>
   <path class="fil7" d="M9918 4816c0,17 14,31 31,31 18,0 32,-14 32,-31 0,-17 -14,-31 -32,-31 -17,0 -31,14 -31,31z"/>
   <path class="fil7" d="M9695 4816c0,17 14,31 31,31 17,0 31,-14 31,-31 0,-17 -14,-31 -31,-31 -17,0 -31,14 -31,31z"/>
   <path class="fil7" d="M9471 4816c0,17 14,31 31,31 17,0 31,-14 31,-31 0,-17 -14,-31 -31,-31 -17,0 -31,14 -31,31z"/>
   <path class="fil7" d="M9247 4816c0,17 14,31 31,31 18,0 31,-14 31,-31 0,-17 -13,-31 -31,-31 -17,0 -31,14 -31,31z"/>
   <path class="fil7" d="M10142 4981c0,17 14,31 31,31 17,0 31,-14 31,-31 0,-17 -14,-31 -31,-31 -17,0 -31,14 -31,31z"/>
   <path class="fil7" d="M9918 4981c0,17 14,31 31,31 18,0 32,-14 32,-31 0,-17 -14,-31 -32,-31 -17,0 -31,14 -31,31z"/>
   <path class="fil7" d="M9695 4981c0,17 14,31 31,31 17,0 31,-14 31,-31 0,-17 -14,-31 -31,-31 -17,0 -31,14 -31,31z"/>
   <path class="fil7" d="M9471 4981c0,17 14,31 31,31 17,0 31,-14 31,-31 0,-17 -14,-31 -31,-31 -17,0 -31,14 -31,31z"/>
   <path class="fil7" d="M9247 4981c0,17 14,31 31,31 18,0 31,-14 31,-31 0,-17 -13,-31 -31,-31 -17,0 -31,14 -31,31z"/>
   <path class="fil7" d="M10142 5146c0,17 14,31 31,31 17,0 31,-14 31,-31 0,-17 -14,-31 -31,-31 -17,0 -31,14 -31,31z"/>
   <path class="fil7" d="M9918 5146c0,17 14,31 31,31 18,0 32,-14 32,-31 0,-17 -14,-31 -32,-31 -17,0 -31,14 -31,31z"/>
   <path class="fil7" d="M9695 5146c0,17 14,31 31,31 17,0 31,-14 31,-31 0,-17 -14,-31 -31,-31 -17,0 -31,14 -31,31z"/>
   <path class="fil7" d="M9471 5146c0,17 14,31 31,31 17,0 31,-14 31,-31 0,-17 -14,-31 -31,-31 -17,0 -31,14 -31,31z"/>
   <path class="fil7" d="M9247 5146c0,17 14,31 31,31 18,0 31,-14 31,-31 0,-17 -13,-31 -31,-31 -17,0 -31,14 -31,31z"/>
  </g>
 </g>
</svg>
